<svg width="110" height="33" viewBox="0 0 110 33" fill="none" xmlns="http://www.w3.org/2000/svg">
<path d="M15.368 16.5C15.368 25.6127 25.1905 33 16.228 33C7.26554 33 0 25.6127 0 16.5C0 7.3873 7.26554 0 16.228 0C25.1905 0 15.368 7.3873 15.368 16.5Z" fill="white"/>
<path d="M32.7422 23.7109C33.9792 24.9479 35.4896 25.5664 37.2734 25.5664C39.1354 25.5664 40.0664 25.0195 40.0664 23.9258C40.0664 23.3529 39.5521 22.9297 38.5234 22.6562C37.7943 22.487 36.6354 22.194 35.0469 21.7773C33.7578 21.4388 32.6706 20.8138 31.7852 19.9023C30.9128 19.0039 30.4766 17.6237 30.4766 15.7617C30.4766 14.3294 30.8346 13.1185 31.5508 12.1289C32.2799 11.1393 33.224 10.4102 34.3828 9.94141C35.5677 9.45964 36.8633 9.21875 38.2695 9.21875C39.0638 9.21875 39.8711 9.32943 40.6914 9.55078C41.5768 9.82422 42.3711 10.1628 43.0742 10.5664C43.8424 10.9961 44.5195 11.4779 45.1055 12.0117L41.668 15.4297C40.6654 14.6745 39.5716 14.2969 38.3867 14.2969C36.9674 14.2969 36.2578 14.694 36.2578 15.4883C36.2578 16.2044 36.7852 16.7057 37.8398 16.9922C38.9987 17.3047 40.1641 17.5977 41.3359 17.8711C42.625 18.1966 43.6992 18.7956 44.5586 19.668C45.431 20.5534 45.8672 21.9466 45.8672 23.8477C45.8672 25.2669 45.4896 26.4909 44.7344 27.5195C43.9792 28.5612 42.9701 29.3359 41.707 29.8438C40.444 30.3776 39.1354 30.6445 37.7812 30.6445C36.6484 30.6445 35.6263 30.5534 34.7148 30.3711C33.8034 30.2018 32.9505 29.9154 32.1562 29.5117C31.3359 29.1081 30.4766 28.5677 29.5781 27.8906L32.7422 23.7109ZM53.0938 2.26562V11.1719C53.6927 10.5599 54.4349 10.0781 55.3203 9.72656C56.2188 9.375 57.1302 9.19922 58.0547 9.19922C63.0677 9.19922 65.5742 12.1354 65.5742 18.0078V30L59.3242 30.0195V18.4375C59.3242 17.2396 59.0508 16.3411 58.5039 15.7422C57.957 15.1432 57.1888 14.8438 56.1992 14.8438C55.2357 14.8438 54.4805 15.1432 53.9336 15.7422C53.3737 16.3411 53.0938 17.2396 53.0938 18.4375V30L46.8438 30.0391V2.28516L53.0938 2.26562ZM78.0156 30.6445C76.0234 30.6445 74.1419 30.1758 72.3711 29.2383C70.6003 28.3008 69.194 27.0182 68.1523 25.3906C67.0977 23.75 66.5703 21.9141 66.5703 19.8828C66.5703 18.3594 66.8763 16.9401 67.4883 15.625C68.1003 14.3099 68.9401 13.1706 70.0078 12.207C71.0885 11.2305 72.319 10.4818 73.6992 9.96094C75.1055 9.4401 76.5443 9.17969 78.0156 9.17969C79.5 9.17969 80.9453 9.4401 82.3516 9.96094C83.7188 10.4557 84.9492 11.1979 86.043 12.1875C87.1237 13.1771 87.9635 14.3229 88.5625 15.625C89.1745 16.9401 89.4805 18.3594 89.4805 19.8828C89.4805 21.4323 89.181 22.8516 88.582 24.1406C87.9831 25.4427 87.1367 26.5951 86.043 27.5977C84.9362 28.5872 83.7057 29.3359 82.3516 29.8438C80.9844 30.3776 79.5391 30.6445 78.0156 30.6445ZM72.8008 19.8828C72.8008 21.276 73.3216 22.474 74.3633 23.4766C75.3919 24.4792 76.6094 24.9805 78.0156 24.9805C79.4349 24.9805 80.6589 24.4792 81.6875 23.4766C82.7292 22.474 83.25 21.276 83.25 19.8828C83.25 18.9714 83.0091 18.1315 82.5273 17.3633C82.0456 16.5951 81.401 15.9831 80.5938 15.5273C79.7995 15.0716 78.9401 14.8438 78.0156 14.8438C77.1172 14.8438 76.2643 15.0716 75.457 15.5273C74.6497 15.9831 74.0052 16.5951 73.5234 17.3633C73.0417 18.1315 72.8008 18.9714 72.8008 19.8828ZM108.426 10.0195L97.8984 30.8203L87.7422 10.0586L94.0898 10.0195L97.9766 18.8867L101.805 10.0195H108.426Z" fill="white"/>
</svg>
